<svg id="SvgjsSvg1011" width="288" height="288" xmlns="http://www.w3.org/2000/svg" version="1.1" xmlns:xlink="http://www.w3.org/1999/xlink" xmlns:svgjs="http://svgjs.com/svgjs"><defs id="SvgjsDefs1012"></defs><g id="SvgjsG1013"><svg xmlns="http://www.w3.org/2000/svg" fill="none" viewBox="0 0 24 24" width="288" height="288"><path stroke="#f7c324" stroke-linejoin="round" stroke-width="2" d="M12 11L8 3H4L8.5058 12.4622M12 11L16 3H20L15.4942 12.4622M12 11C13.344 11 14.5848 11.5635 15.4942 12.4622M12 11C10.656 11 9.41518 11.5635 8.5058 12.4622M15.4942 12.4622C16.4182 13.3753 17 14.6344 17 16C17 18.7614 14.7614 21 12 21C9.23858 21 7 18.7614 7 16C7 14.6344 7.58179 13.3753 8.5058 12.4622" class="colorStroke000 svgStroke"></path></svg></g></svg>