<svg id="SvgjsSvg1016" width="288" height="288" xmlns="http://www.w3.org/2000/svg" version="1.1" xmlns:xlink="http://www.w3.org/1999/xlink" xmlns:svgjs="http://svgjs.com/svgjs"><defs id="SvgjsDefs1017"></defs><g id="SvgjsG1018"><svg xmlns="http://www.w3.org/2000/svg" fill="none" viewBox="0 0 48 48" width="288" height="288"><path fill="#f7c324" d="M3 29.4C3 25.144 11.6613 23 16 23 20.3387 23 29 25.144 29 29.4V35H3V29.4zM23 14C23 17.8675 19.8675 21 16 21 12.1325 21 9 17.8675 9 14 9 10.1325 12.1325 7 16 7 19.8675 7 23 10.1325 23 14zM40 18C40 20.7625 37.7625 23 35 23 32.2375 23 30 20.7625 30 18 30 15.2375 32.2375 13 35 13 37.7625 13 40 15.2375 40 18z" class="color333 svgShape"></path><path fill="#f7c324" fill-rule="evenodd" d="M31 35V29.4C31 28.0363 30.4684 26.8885 29.7194 25.9627C31.5696 25.3216 33.584 25 35 25C38.3375 25 45 26.7867 45 30.3333V35H31Z" clip-rule="evenodd" class="color333 svgShape"></path></svg></g></svg>